<?xml version="1.0" standalone="no"?>
<!DOCTYPE svg PUBLIC "-//W3C//DTD SVG 20010904//EN"
 "http://www.w3.org/TR/2001/REC-SVG-20010904/DTD/svg10.dtd">
<svg version="1.0" xmlns="http://www.w3.org/2000/svg"
 width="780.000000pt" height="780.000000pt" viewBox="0 0 780.000000 780.000000"
 preserveAspectRatio="xMidYMid meet">
<metadata>
Created by potrace 1.11, written by Peter Selinger 2001-2013
</metadata>
<g transform="translate(0.000000,780.000000) scale(0.100000,-0.100000)"
fill="#000000" stroke="none">
<path d="M3035 7550 c-3 -5 -1 -10 4 -10 6 0 11 5 11 10 0 6 -2 10 -4 10 -3 0
-8 -4 -11 -10z"/>
<path d="M3475 6844 c-492 -50 -956 -200 -1345 -436 -136 -82 -151 -93 -142
-103 4 -5 2 -5 -4 -2 -17 10 -212 -136 -337 -253 -33 -30 -73 -66 -89 -80 -43
-36 -207 -218 -288 -320 -158 -199 -330 -492 -435 -740 -108 -254 -189 -575
-227 -895 -26 -226 -14 -597 28 -855 141 -858 643 -1632 1374 -2117 541 -359
1190 -543 1830 -520 501 19 950 141 1395 380 50 27 106 59 125 71 19 13 73 48
120 78 173 112 423 329 581 503 90 100 112 126 176 212 552 736 756 1628 582
2548 -88 469 -319 962 -636 1360 -106 134 -344 373 -473 477 -458 366 -984
594 -1555 674 -114 16 -579 28 -680 18z m475 -149 c456 -74 846 -400 1009
-843 61 -165 90 -378 71 -518 -38 -287 -233 -619 -589 -1004 l-60 -65 94 -3
95 -3 0 -64 0 -65 -210 0 -210 0 -1 58 c0 31 -6 120 -13 197 -7 77 -12 141
-12 141 1 1 31 5 69 9 l67 7 1 -59 c0 -32 3 -75 7 -96 l7 -39 70 74 c110 114
226 258 219 270 -4 6 -3 8 3 5 11 -7 95 105 164 218 55 90 121 234 114 246 -4
5 -2 9 3 9 5 0 13 10 16 23 31 107 36 144 37 237 1 552 -416 1039 -973 1136
-122 21 -338 15 -458 -14 -274 -66 -504 -216 -669 -436 -124 -165 -196 -338
-227 -546 -28 -195 -6 -327 88 -519 173 -354 526 -736 1169 -1268 68 -57 153
-127 188 -158 35 -30 68 -52 73 -49 5 3 7 1 6 -3 -2 -5 81 -92 184 -192 540
-526 779 -941 753 -1306 -16 -224 -91 -458 -200 -621 -14 -22 -31 -47 -38 -58
-30 -45 -74 -96 -143 -167 -180 -184 -427 -314 -694 -364 -113 -21 -329 -21
-451 0 -465 80 -862 420 -1008 864 -59 178 -84 387 -62 516 47 281 227 588
560 953 42 46 77 86 79 90 1 4 -38 6 -88 4 l-90 -3 0 70 0 71 210 0 210 0 0
-57 c0 -31 5 -119 12 -195 6 -76 9 -140 6 -143 -2 -3 -32 -8 -65 -11 l-60 -7
-8 99 -7 99 -90 -95 c-368 -387 -566 -765 -544 -1039 26 -311 133 -548 346
-761 171 -172 390 -286 627 -326 127 -22 352 -15 468 15 274 68 495 214 666
440 27 35 46 68 42 74 -3 5 -1 7 4 4 13 -8 102 171 132 263 55 171 68 393 30
530 -70 255 -295 578 -639 918 -233 231 -591 539 -612 526 -6 -4 -8 -3 -5 3 4
6 -35 46 -86 89 -310 264 -587 544 -763 774 -250 326 -355 584 -341 840 18
335 146 624 381 859 110 110 194 172 332 242 132 67 284 115 419 132 80 10
299 6 385 -8z"/>
</g>
</svg>
